<?xml version="1.0" encoding="UTF-8"?>
<!DOCTYPE svg PUBLIC "-//W3C//DTD SVG 1.1//EN" "http://www.w3.org/Graphics/SVG/1.1/DTD/svg11.dtd">
<!-- Creator: CorelDRAW 2018 (64-Bit) -->
<svg xmlns="http://www.w3.org/2000/svg" xml:space="preserve" width="96px" height="96px" version="1.1" style="shape-rendering:geometricPrecision; text-rendering:geometricPrecision; image-rendering:optimizeQuality; fill-rule:evenodd; clip-rule:evenodd"
viewBox="0 0 96 96"
 xmlns:xlink="http://www.w3.org/1999/xlink">
 <defs>
  <style type="text/css">
   <![CDATA[
    .fil0 {fill:#FEFEFE}
    .fil1 {fill:#2A0C67}
   ]]>
  </style>
 </defs>
 <g id="Слой_x0020_1">
  <metadata id="CorelCorpID_0Corel-Layer"/>
  <path class="fil0" d="M95.88 44.57c0.01,0.15 0.02,0.31 0.03,0.47l0.04 0.63 -0.01 0c0.01,0.2 0.02,0.4 0.03,0.61 0.02,0.64 0.03,1.21 0.03,1.72 0,13.25 -5.37,25.25 -14.06,33.94 -8.69,8.69 -20.69,14.06 -33.94,14.06 -13.25,0 -25.25,-5.37 -33.94,-14.06 -8.69,-8.69 -14.06,-20.69 -14.06,-33.94 0,-0.51 0.01,-1.08 0.03,-1.71l0 0c0.01,-0.21 0.02,-0.41 0.03,-0.61l-0.01 0 0.04 -0.66c0.01,-0.15 0.02,-0.3 0.03,-0.44l0.07 -0.96 0.01 0c1.1,-12.11 6.69,-22.93 15.1,-30.76 8.58,-7.98 20.07,-12.86 32.7,-12.86 12.63,0 24.12,4.88 32.69,12.86 8.42,7.83 14.01,18.65 15.11,30.76l0.01 0 0.07 0.95z"/>
  <path class="fil1" d="M94.25 44.69c0.01,0.14 0.02,0.29 0.03,0.45l0.05 0.61 -0.02 0c0.01,0.19 0.02,0.39 0.03,0.59 0.02,0.61 0.03,1.17 0.03,1.66 0,12.8 -5.19,24.4 -13.58,32.79 -8.39,8.39 -19.99,13.58 -32.79,13.58 -12.81,0 -24.4,-5.19 -32.79,-13.58 -8.39,-8.39 -13.58,-19.98 -13.58,-32.79 0,-0.49 0.01,-1.04 0.03,-1.65l0 0c0.01,-0.21 0.02,-0.4 0.03,-0.6l-0.02 0 0.05 -0.63c0.01,-0.14 0.02,-0.28 0.03,-0.42l0.06 -0.93 0.01 0c1.06,-11.7 6.47,-22.15 14.59,-29.72 8.28,-7.7 19.39,-12.42 31.59,-12.42 12.2,0 23.3,4.71 31.58,12.42 8.13,7.57 13.54,18.01 14.6,29.72l0.01 0 0.06 0.92zm-19.91 19.99l0.06 -0.18 0.06 -0.24 0.06 -0.24 0.06 -0.24 0.05 -0.36 0.06 -0.36 0.06 -0.42 0.06 -0.48 0.06 -0.66 0.06 -0.95 0 -1.44 2.15 0 0 5.63 -2.74 -0.06zm-2.26 -5.21l-0.06 1.37 -0.06 0.78 -0.06 0.54 -0.06 0.48 -0.06 0.3 -0.06 0.3 -0.06 0.24 -0.06 0.24 -0.06 0.18 -0.06 0.18 -0.06 0.18 -0.06 0.12 -0.06 0.18 -0.06 0.12 -1.01 0.06 0 4.67 2.56 0 0 -2.16 5.54 0 0 2.16 2.5 0 0 -4.67 -0.84 0 0 -8.15 -7.85 0 -0.06 2.88zm-43.22 1.79l0.06 -0.36 0.06 -0.24 0.06 -0.17 0.06 -0.18 0.06 -0.12 0.06 -0.12 0.06 -0.12 0.06 -0.06 0.06 -0.06 0.06 -0.12 0.06 -0.06 0.06 -0.06 0.06 -0.06 0.12 -0.06 0.06 -0.06 0.06 -0.06 0.12 -0.06 0.11 -0.06 0.18 -0.06 0.18 -0.06 0.3 -0.06 0.83 0 0.3 0.06 0.18 0.06 0.12 0.06 0.12 0.06 0.12 0.06 0.11 0.06 0.06 0.06 0.06 0.06 0.06 0.06 0.06 0.06 0.06 0.06 0.06 0.06 0.06 0.06 0.06 0.12 0.06 0.06 0.06 0.12 0.06 0.12 0.06 0.18 0.06 0.17 0.06 0.24 0.06 0.3 0 1.5 -0.06 0.36 -0.06 0.24 -0.06 0.18 -0.06 0.12 -0.06 0.12 -0.06 0.12 -0.06 0.12 -0.06 0.06 -0.06 0.06 -0.06 0.06 -0.06 0.12 -0.12 0.06 -0.06 0.06 -0.06 0.06 -0.06 0.06 -0.11 0.06 -0.12 0.06 -0.12 0.06 -0.12 0.06 -0.18 0.06 -0.3 0.06 -0.77 0 -0.24 -0.06 -0.18 -0.06 -0.18 -0.06 -0.12 -0.06 -0.11 -0.06 -0.06 -0.06 -0.12 -0.06 -0.06 -0.06 -0.06 -0.06 -0.06 -0.06 -0.06 -0.06 -0.06 -0.06 -0.06 -0.06 -0.06 -0.06 -0.06 -0.12 -0.06 -0.12 -0.06 -0.06 -0.06 -0.18 -0.06 -0.12 -0.06 -0.18 -0.06 -0.24 -0.06 -0.36 0 -1.32zm0.84 -4.73l-0.24 0.06 -0.24 0.06 -0.18 0.06 -0.18 0.06 -0.11 0.06 -0.12 0.06 -0.12 0.06 -0.12 0.06 -0.12 0.06 -0.12 0.06 -0.06 0.06 -0.12 0.06 -0.06 0.06 -0.12 0.06 -0.06 0.06 -0.06 0.06 -0.11 0.06 -0.06 0.06 -0.06 0.06 -0.06 0.06 -0.06 0.06 -0.06 0.06 -0.06 0.06 -0.06 0.06 -0.06 0.06 -0.06 0.06 -0.06 0.12 -0.06 0.06 -0.06 0.06 -0.06 0.12 -0.06 0.06 -0.06 0.12 -0.06 0.06 -0.06 0.12 -0.06 0.12 -0.06 0.06 -0.06 0.12 -0.05 0.18 -0.06 0.12 -0.06 0.12 -0.06 0.18 -0.06 0.18 -0.06 0.24 -0.06 0.24 -0.06 0.29 -0.06 0.48 0 1.68 0.06 0.42 0.06 0.3 0.06 0.24 0.06 0.18 0.06 0.18 0.06 0.18 0.06 0.12 0.06 0.18 0.05 0.12 0.06 0.12 0.06 0.12 0.06 0.06 0.06 0.12 0.06 0.12 0.06 0.06 0.06 0.12 0.06 0.06 0.06 0.06 0.06 0.12 0.06 0.06 0.06 0.06 0.06 0.06 0.06 0.06 0.06 0.06 0.06 0.06 0.06 0.06 0.06 0.06 0.06 0.06 0.06 0.06 0.05 0.06 0.12 0.06 0.06 0.06 0.06 0.06 0.12 0.06 0.06 0.06 0.12 0.06 0.06 0.06 0.12 0.05 0.12 0.07 0.12 0.06 0.12 0.06 0.17 0.06 0.18 0.05 0.18 0.06 0.24 0.06 0.24 0.06 0.3 0.06 0.53 0.06 1.43 0 0.48 -0.06 0.29 -0.06 0.24 -0.06 0.18 -0.06 0.18 -0.06 0.12 -0.05 0.18 -0.06 0.12 -0.06 0.11 -0.06 0.12 -0.07 0.12 -0.05 0.06 -0.06 0.12 -0.06 0.06 -0.06 0.12 -0.06 0.06 -0.06 0.06 -0.06 0.12 -0.06 0.06 -0.06 0.06 -0.06 0.06 -0.06 0.06 -0.06 0.06 -0.06 0.05 -0.06 0.06 -0.06 0.06 -0.06 0.06 -0.06 0.06 -0.06 0.06 -0.06 0.06 -0.12 0.06 -0.06 0.06 -0.06 0.06 -0.12 0.06 -0.06 0.06 -0.12 0.06 -0.06 0.06 -0.12 0.06 -0.12 0.06 -0.12 0.06 -0.12 0.06 -0.12 0.06 -0.18 0.06 -0.12 0.05 -0.18 0.06 -0.24 0.06 -0.18 0.06 -0.3 0.06 -0.42 0 -1.92 -0.06 -0.36 -0.06 -0.29 -0.06 -0.24 -0.06 -0.18 -0.05 -0.18 -0.06 -0.18 -0.06 -0.12 -0.06 -0.18 -0.06 -0.12 -0.06 -0.12 -0.06 -0.12 -0.06 -0.06 -0.06 -0.12 -0.06 -0.06 -0.06 -0.12 -0.06 -0.06 -0.06 -0.12 -0.06 -0.06 -0.06 -0.06 -0.06 -0.06 -0.06 -0.12 -0.06 -0.06 -0.06 -0.06 -0.06 -0.06 -0.05 -0.06 -0.06 -0.06 -0.06 -0.06 -0.06 -0.06 -0.12 -0.06 -0.06 -0.06 -0.06 -0.06 -0.06 -0.06 -0.12 -0.06 -0.06 -0.06 -0.12 -0.06 -0.06 -0.06 -0.12 -0.06 -0.12 -0.06 -0.12 -0.06 -0.11 -0.06 -0.12 -0.06 -0.18 -0.06 -0.12 -0.06 -0.18 -0.06 -0.24 -0.06 -0.24 -0.06 -0.29 -0.06 -2.32 0 -0.3 0.06zm27.26 0.06l-0.24 0.06 -0.24 0.06 -0.18 0.06 -0.12 0.06 -0.11 0.06 -0.12 0.06 -0.06 0.06 -0.12 0.06 -0.06 0.06 -0.06 0.06 -0.06 0.06 -0.06 0.06 -0.06 0.06 -0.06 0.06 -0.06 0.12 -0.06 0.06 -0.06 0.06 -0.06 0.12 -0.06 0.06 -0.06 0.12 -0.06 0.12 -0.06 0.12 -0.06 0.12 -0.05 0.06 -0.06 0.18 -0.06 0.12 -0.06 0.12 -0.06 0.12 -0.06 0.18 -0.06 0.12 -0.06 0.12 -0.06 0.18 -0.06 0.12 -0.06 0.12 -0.06 0.18 -0.06 0.12 -0.06 0.12 -0.06 0.12 -0.06 0.12 -0.06 0.06 -0.06 0.06 -0.06 0.05 -0.06 -4.01 -2.91 0 0 10.66 2.91 0 0.01 -4.2 0.11 0.07 0.06 0.12 0.06 0.06 0.06 0.12 0.06 0.06 0.06 0.12 0.06 0.06 0.06 0.12 0.06 0.12 0.06 0.12 0.06 0.06 0.06 0.12 0.06 0.12 0.06 0.12 0.06 0.12 0.06 0.12 0.06 0.12 0.06 0.12 0.05 0.12 0.06 0.12 0.06 0.12 0.06 0.12 0.06 0.12 0.06 0.12 0.06 0.12 0.06 0.12 0.06 0.18 0.06 0.12 0.06 0.12 0.06 0.12 0.06 0.12 0.06 0.12 0.06 0.12 0.06 0.12 0.06 0.12 0.06 0.11 0.06 0.12 3.39 0 0 -0.12 -0.06 -0.11 -0.06 -0.12 -0.06 -0.12 -0.06 -0.12 -0.06 -0.12 -0.06 -0.12 -0.06 -0.12 -0.06 -0.12 -0.06 -0.12 -0.06 -0.12 -0.06 -0.06 -0.06 -0.12 -0.06 -0.12 -0.05 -0.12 -0.06 -0.12 -0.06 -0.12 -0.06 -0.12 -0.06 -0.12 -0.06 -0.12 -0.06 -0.12 -0.06 -0.12 -0.06 -0.12 -0.06 -0.12 -0.06 -0.12 -0.06 -0.12 -0.06 -0.06 -0.06 -0.12 -0.06 -0.12 -0.06 -0.12 -0.06 -0.12 -0.06 -0.12 -0.06 -0.12 -0.06 -0.12 -0.06 -0.06 -0.05 -0.12 -0.06 -0.12 -0.06 -0.06 -0.06 -0.12 -0.06 -0.06 -0.06 -0.12 -0.06 -0.06 -0.06 -0.12 -0.06 -0.06 -0.06 -0.12 -0.06 -0.06 -0.06 -0.06 -0.06 -0.06 -0.06 -0.06 -0.06 -0.06 -0.06 -0.06 -0.06 -0.06 -0.06 -0.06 -0.06 -0.06 -0.06 -0.06 0.06 -0.12 0.06 -0.06 0.06 -0.06 0.06 -0.12 0.06 -0.06 0.06 -0.12 0.06 -0.12 0.06 -0.12 0.06 -0.12 0.06 -0.18 0.06 -0.11 0.06 -0.18 0.06 -0.18 0.06 -0.12 0.06 -0.18 0.06 -0.12 0.06 -0.12 0.06 -0.18 0.06 -0.12 0.05 -0.06 0.06 -0.12 0.06 -0.06 0.12 -0.06 0.18 -0.06 1.25 -0.06 0 -2.34 -1.55 0 -0.47 0.06zm-18.04 10.66l2.92 0 0 -4.25 3.09 0 0 4.25 2.98 0 0 -10.66 -2.98 0 0 3.84 -3.09 0 0 -3.84 -2.92 0 0 10.66zm-18.21 -6.76l-0.06 0.06 -0.06 0.05 0 0.12 -0.12 0 -0.06 0.06 -0.12 0.06 -0.18 0.06 -0.47 0.06 -1.55 0.06 0 -1.92 1.37 0.07 0.65 0.06 0.18 0.06 0.12 0.06 0.06 0.06 0.06 0.06 0.06 0.06 0.06 0.06 0.06 0.12 0.06 0.12 0 0.48 -0.06 0.18zm-5.54 6.76l2.92 0 0 -3.65 0.95 0 1.43 -0.06 0.48 -0.06 0.36 -0.06 0.23 -0.06 0.18 -0.06 0.18 -0.06 0.12 -0.06 0.12 -0.06 0.12 -0.06 0.06 -0.06 0.12 -0.06 0.06 -0.06 0.06 -0.06 0.11 -0.06 0.06 -0.06 0.06 -0.06 0.06 -0.06 0.06 -0.06 0.06 -0.06 0.06 -0.06 0.06 -0.12 0.06 -0.06 0.06 -0.06 0.06 -0.12 0.06 -0.06 0.06 -0.12 0.06 -0.12 0.06 -0.12 0.06 -0.12 0.06 -0.12 0.06 -0.18 0.06 -0.24 0.06 -0.41 0 -1.02 -0.06 -0.42 -0.06 -0.24 -0.06 -0.18 -0.06 -0.12 -0.06 -0.18 -0.06 -0.12 -0.06 -0.06 -0.06 -0.12 -0.06 -0.06 -0.06 -0.12 -0.06 -0.06 -0.06 -0.06 -0.06 -0.12 -0.06 -0.06 -0.06 -0.06 -0.06 -0.06 -0.06 -0.06 -0.06 -0.06 -0.06 -0.06 -0.11 -0.06 -0.06 -0.06 -0.06 -0.06 -0.12 -0.06 -0.06 -0.06 -0.12 -0.06 -0.12 -0.06 -0.18 -0.06 -0.18 -0.06 -0.24 -0.06 -0.35 -0.06 -0.66 -0.06 -5.24 0 0 10.66zm45.12 -8.14l2.98 0 0 8.14 2.91 0 0 -8.14 3.04 0 0 -2.52 -8.93 0 0 2.52zm3.53 -42.65c0.51,-0.71 1.17,-1.25 1.92,-1.7 0.25,-0.33 -1.74,-0.4 -0.23,-1.33 0,-0.11 -0.09,-0.21 0.07,-0.24 -0.03,-0.17 0.19,-0.44 0.51,-0.72 -1.31,-1.03 -2.66,-1.99 -4.04,-2.87 -1.06,0.38 -2.06,0.73 -3.03,1.04 1.58,1.7 3.21,3.64 4.8,5.82zm3.62 -4.94c0.43,-0.26 0.78,-0.42 0.82,-0.37 0.04,-0.13 0.09,-0.17 0.23,-0.17 0.01,-0.25 0.17,-0.2 0.37,-0.16 0,-0.24 0.25,-0.04 0.34,0.02 0.1,-0.33 -0.07,-0.45 0.24,-0.5 -0.29,-0.29 0.29,-0.59 0.68,-0.82 -1.08,-0.63 -2.2,-1.21 -3.34,-1.75 -1,0.41 -1.96,0.79 -2.89,1.14 1.21,0.81 2.4,1.68 3.55,2.61zm3.44 -1.56c0.03,0.16 0.04,0.32 0.06,0.42 0.26,-0.07 0.45,-0.07 0.58,-0.02 -0.21,-0.14 -0.43,-0.27 -0.64,-0.4zm0.78 0.48c0.42,0.42 -0.45,1.82 -1.13,1.4 0.04,0.28 -0.34,0.84 -0.6,0.78 0.35,0.17 0.69,0.91 0.54,1.29 0.24,-0.03 0.69,0.22 0.84,0.08 0.18,0.15 1.79,-0.24 0.75,0.87 -0.11,0.12 -0.12,0.42 -0.1,0.76 0.61,0.61 1.2,1.25 1.77,1.9 0.66,0.75 1.3,1.52 1.91,2.31 1.55,-0.7 3.1,-1.47 4.63,-2.3 -0.66,-0.7 -1.34,-1.37 -2.04,-2.02 -2.02,-1.89 -4.22,-3.59 -6.57,-5.07zm0.84 8.09c-0.02,0.08 -0.05,0.13 -0.12,0.13 -0.29,0 -0.75,0.12 -0.72,0.54l0 0c0.03,0.07 0.41,1.32 -0.27,0.82 0.01,0.11 0.26,0.86 -0.16,0.69 -0.18,0.46 0.08,0.55 0.29,0.87 0.88,-0.34 1.75,-0.7 2.62,-1.08 -0.52,-0.66 -1.05,-1.3 -1.6,-1.93l-0.04 -0.04zm0.76 4.06c0.35,0.14 0.62,0.7 0.09,0.7 0.05,0.89 1.32,0.54 0.67,1.46 0,0 1.22,3.42 0.98,3.64 0.61,0.49 -0.31,1.95 -0.35,0.68 0,-0.12 -0.82,0.27 -0.06,-0.52 0.21,-0.22 -3.97,-2.51 -3.85,-3.95 -0.02,0 -0.12,-0.4 -0.23,-0.95 -0.45,0.16 -0.9,0.32 -1.35,0.48 -0.03,0.14 -0.12,0.34 -0.23,0.55 2.14,4.11 4.01,8.77 5.33,13.98 2.61,-0.74 5.26,-1.58 7.93,-2.51 -1.54,-5.38 -3.99,-10.17 -7.06,-14.35 -0.62,0.27 -1.24,0.54 -1.87,0.79zm-3.02 -0.53c-0.11,-0.74 -0.15,-1.38 -0.04,-1.52 0,0 0.01,0 0.01,0 -0.2,-0.03 -0.83,-0.9 -0.85,-1.17 -0.22,0.42 0.89,1.31 0.26,1.02 0,0 0.17,2.12 -0.2,1.28 -0.32,0.21 -0.33,-0.43 -0.53,-0.43 -0.06,0.37 -0.39,0.21 -0.43,1.45 0.6,-0.2 1.19,-0.41 1.78,-0.63zm-2.74 3.32c-0.01,0.01 -0.03,0.01 -0.04,0.01 -0.63,0 0.12,0.8 -0.45,0.8 -0.51,0 -0.62,0.71 -0.64,0.73 -0.2,0.17 -0.24,-0.45 -1.11,0.64 -0.09,0.11 -0.55,2.95 -0.5,3.09l0 0c0.27,0.41 -0.5,1.77 -0.46,1.96 0.23,-0.05 0.28,-0.04 0.53,-0.18 -0.24,0.05 -0.23,-0.58 0.15,-0.46 0,-0.85 0.86,0.37 0.59,0.88 0.02,0.09 0.2,0.12 0.28,0.02 -0.48,-2.79 5.57,1.61 3.37,6.91 0.02,0.04 0.03,0.1 0.04,0.16 0.44,-0.1 0.89,-0.21 1.33,-0.32 -0.18,-1.29 -0.34,-3.37 -0.28,-3.95 0.04,-0.38 -0.69,-0.57 -0.57,-0.83 -0.02,-0.04 -0.1,-0.05 -0.12,-0.11l-0.05 -0.75c0,0 0,-0.01 0,-0.01 -0.01,-0.56 0.42,-1.35 0.16,-1.58 -0.53,-0.49 0.89,-0.67 0.55,0.03 -0.14,0.29 0.63,0.69 0.26,0.87 0.2,0.11 0.54,0.76 0.16,0.81 0.04,0.1 0.09,0.21 0,0.31 0.09,0.09 0.84,1.33 1.35,2.2 -1.22,-4.12 -2.79,-7.86 -4.55,-11.23zm1.29 16.3c-0.34,0.62 -0.82,1.06 -1.3,0.66 -0.14,-0.12 -0.28,1.4 -0.96,0.65 -0.11,-0.13 -0.12,-0.28 0.05,-0.28l0 0c0.23,-0.01 0.18,-0.25 0.05,-0.57 -2.02,0.41 -4.02,0.76 -6.01,1.04 0.02,0.2 0.02,0.4 0.03,0.59l13.02 0c-0.09,-0.59 -0.19,-1.18 -0.3,-1.76 -0.08,-0.47 -0.18,-0.93 -0.28,-1.39 -1.44,0.38 -2.87,0.74 -4.3,1.06zm-2.29 -1.13c0.03,-0.01 0.06,-0.02 0.09,-0.02l0.36 -0.08c0.47,-0.37 -0.28,-2.22 -0.32,-2.73 -0.35,0.24 -1.23,2.22 -1.92,1.29 -0.98,-1.32 -1.59,-0.06 -2.4,-0.8 -0.8,-0.72 -1.52,-2.02 -2.68,-1.94 0.38,1.96 0.68,3.76 0.86,5.33 1.99,-0.29 3.99,-0.64 6.01,-1.05zm-8.34 -3.54c-0.03,0.03 -0.06,0.05 -0.1,0.08 -0.07,0.07 0.07,0.21 0.19,0.4 -0.03,-0.16 -0.06,-0.32 -0.09,-0.48zm0.21 1.14c-0.23,0.75 -0.03,2.85 -1.61,2.12 -1.65,-0.77 -2.59,2.53 -4.64,1.12 -1.67,-1.14 -2.7,0.24 -3.37,-0.88 -0.06,-0.1 -0.12,-0.18 -0.19,-0.26l0 2.27c3.42,-0.03 6.87,-0.27 10.36,-0.71 -0.12,-1.11 -0.31,-2.34 -0.55,-3.66zm-11.4 1.44c-0.39,0.1 -0.59,0.47 -0.29,1.11 0.44,0.95 -2.15,0.99 -2.15,0.04 0,-0.73 -1.93,0.29 -2.36,0.11 -0.11,0.23 -0.25,0.36 -0.51,0.36l0 0c-0.82,0 -2.67,-0.22 -2.67,-1.51 0,-0.84 -1.53,0.2 -1.55,-0.98 0,0 -0.24,0.26 -0.44,0.31 -0.16,0.98 -0.29,1.9 -0.38,2.74 3.43,0.47 6.88,0.71 10.35,0.75l0 -2.93zm-10.96 -3.86c0,-0.04 -0.01,-0.08 -0.01,-0.12 -0.3,-0.02 -1.13,0.45 -1.28,0.02 -0.23,0.2 -0.49,-0.22 -0.26,-0.4 -0.15,-0.12 -0.44,-0.13 -0.39,-0.39 -0.79,-0.21 -0.36,-0.5 -0.3,-1.14 -0.28,0 -3.68,-0.8 -4.54,-1.28 -0.06,-0.04 -0.03,0.37 -0.17,0.44 0.11,1.05 -0.54,-0.05 -0.53,0.54 0,0.32 -0.48,0.22 -0.64,0.17 0.39,1.76 -1.02,1.42 -1.43,0.09 -0.18,-0.58 -1.62,-0.32 -1.57,-1 -0.01,0.01 -0.03,-0.03 -0.06,-0.1 -0.73,1.97 -1.39,4.04 -1.95,6.2 4.06,1.24 8.11,2.16 12.17,2.79 0.19,-1.71 0.52,-3.68 0.96,-5.82zm-12.26 -4.79c-0.32,-0.29 -0.69,-0.44 -1.05,-0.25 -0.13,0.07 -1.47,0.83 -1.12,-0.36 -1.69,0.83 -1.07,0.96 -1.59,1.34 0.58,0.57 0.3,1.67 -0.07,1.27 -0.08,0.39 0.81,0.93 -0.77,0.47 -1.55,-0.45 -1.36,0.8 -1.45,0.81l0 0c-0.47,0 -0.59,1.9 -0.83,1.93 -2.01,0.19 -2.31,-1.76 -2.33,-3.62 -0.36,0.94 -0.69,1.9 -0.99,2.88 2.62,1.09 5.22,2.05 7.81,2.88 0.68,-2.59 1.48,-5.03 2.39,-7.35zm-10.09 -0.49c-0.26,-0.05 -0.16,-1.16 -0.91,-0.3 -0.08,0.08 -0.16,0.16 -0.15,-0.02 -0.82,-0.7 -2.53,1.39 -1.67,-1.22 0.15,-0.47 0.33,-1.04 -0.23,-0.82 -0.94,-1.25 -0.75,0.33 -1.3,-0.75 0.04,-0.81 2.18,-0.54 2.55,-0.84 -0.04,-0.24 0.97,0.04 0.63,0.99 -0.05,-0.04 -0.08,-0.07 -0.13,-0.06 0.19,0.23 0,0.2 0.14,0.36 -0.08,-0.91 1.12,0.46 0.36,0.96 0.2,0.73 0.63,0.86 1.1,0.81 1.03,-2.31 2.22,-4.48 3.56,-6.53 -0.73,-0.35 0.32,-1.27 0.67,-1 0.18,-0.26 0.35,-0.5 0.53,-0.75 -1.46,-0.74 -2.9,-1.53 -4.32,-2.39 -3.38,3.9 -6.1,8.39 -7.97,13.3 1.86,0.93 3.72,1.79 5.56,2.59 0.46,-1.49 0.99,-2.93 1.58,-4.33zm2.91 -2.48c0.25,0.04 0.5,0.1 0.58,0.16l0 0c0.92,0.58 0.68,-1.98 0.74,-2.05 -0.09,-0.09 -0.16,-0.11 -0.22,-0.12 -0.38,0.66 -0.75,1.33 -1.1,2.01zm2.9 -8.13c-0.01,-0.1 -0.02,-0.22 -0.02,-0.36 0,-0.23 1.21,-1.4 1.51,-1.05 0.04,-0.14 0.18,-0.27 0.37,-0.36 0.15,-0.19 0.31,-0.37 0.47,-0.55 2.94,-3.34 6.28,-6.22 9.82,-8.6 -0.84,-0.33 -1.72,-0.67 -2.63,-1.04 -4.13,1.97 -7.92,4.55 -11.22,7.63 -0.76,0.7 -1.49,1.43 -2.19,2.18 1.28,0.77 2.58,1.48 3.89,2.15zm4.44 -2.28c2.46,0.29 1.05,-0.46 1.71,-0.74 0.32,-0.14 3.09,-2.15 3.11,-2.46 0.03,-0.24 2.44,-0.35 1.84,0.95 -0.03,0.05 -0.03,0.11 0.01,0.16 0.52,0 0.4,1.61 -0.03,2.63 0.16,-0.23 0.31,-0.46 0.47,-0.68 1.8,-2.57 3.67,-4.82 5.48,-6.76 -0.97,-0.32 -1.98,-0.67 -3.03,-1.05 -3.43,2.19 -6.67,4.84 -9.56,7.95zm6.17 1.23c-0.44,0.34 -1.01,-0.05 -1.57,-2.13 -1.04,1.48 -1.37,1.66 -1.04,2.5 0.05,-0.02 0.13,-0.09 0.17,-0.14l-0.07 0c0.14,-1.18 0.79,-0.89 0.8,0.22 0,0.59 0.47,-0.37 0.52,-0.36l0 0c0.19,0.02 0.72,0 1.08,0.08l0.11 -0.17zm2.06 -0.21c0.18,0.23 0.39,0.48 0,0.9 -0.13,0.15 -0.35,-0.07 -0.52,-0.14 -0.06,0.1 -0.13,0.2 -0.19,0.29 0.04,0.68 1.75,-0.04 2.32,0.48 0.71,-0.37 0.98,-0.24 0.41,0.57 0.16,0.45 1.05,-0.24 1.82,0.78 0.3,-0.08 -0.08,-1.76 0.41,-1.41 0.19,0.13 1.76,4.09 1.77,2.24 0,-0.34 0.99,-2.8 1.91,-2.56 -0.01,-0.26 0.1,-0.35 0.24,-0.35 0.23,-0.75 0.47,-1.5 0.71,-2.23 -0.74,0.16 -2.34,0.31 -2.68,0.31 -0.05,0.08 -0.27,0.33 -0.37,0.13 -0.44,0.69 -1.68,0.11 -1.68,1.99 0,0.11 -0.05,0.29 -0.18,0.29 -0.37,0 -0.92,-0.63 -0.79,-1.06 -0.81,-0.49 0.91,-1.68 1.56,-1.43 0,-0.36 0.17,-0.66 0.56,-0.42 0.02,-0.15 0.13,-0.17 0.25,-0.17l0 -0.03 0 0c0.03,-0.08 0.22,-0.18 0.31,-0.21 -0.05,-0.21 2.43,-0.39 3.21,0 0.49,-1.5 0.98,-2.95 1.46,-4.31 -1.43,-0.25 -2.92,-0.61 -4.49,-1.07 -1.91,2.01 -3.92,4.4 -5.86,7.16 -0.06,0.08 -0.12,0.17 -0.18,0.25zm9.29 2.57c0.13,0.01 0.26,0.14 0.33,0.25 -0.14,-1.57 0.61,0.29 1.19,0.45 -0.75,-1.99 -0.34,-1.37 0.82,-1.51l0.18 0.03c0.23,0 0.4,-0.11 0.55,0.13 0.18,-0.14 -0.06,-0.8 -0.06,-1.02l0.14 -0.17c0.3,0.02 0.37,-0.28 0.66,-0.22 0.08,-0.07 0.96,-0.41 0.96,-0.41l0 0c0.07,0.01 0.1,-0.07 0.14,-0.11 -0.38,-0.08 0.05,-0.45 0.25,-0.37 -0.13,-0.65 0.22,-0.38 0.38,-0.06l0 -5.46c-0.91,-0.02 -1.83,-0.09 -2.76,-0.21 -0.9,2.61 -1.86,5.58 -2.78,8.68zm5.54 -2.6c-0.02,0.01 -0.05,0.02 -0.08,0.02 0.03,0.02 0.06,0.05 0.08,0.08l0 -0.1zm1.59 -1.15c0.37,0.09 0.71,0.49 0.63,0.51 0.31,0.19 1.86,0.09 1.58,1.13 0.31,0.32 -0.03,0.51 -0.14,0.79 0.46,-0.16 0.25,0.31 0.28,0.49l0 0 0.15 0.27c0.16,-0.03 1.52,-0.76 1.42,0 0.5,0.05 0.57,0 1.04,-0.2 -0.25,-0.53 -0.1,-0.61 0.16,-0.65 -0.8,-2.59 -1.6,-5.07 -2.37,-7.28 -0.93,0.12 -1.84,0.19 -2.75,0.22l0 4.72zm7.08 3.36c0.18,0.26 0.32,0.48 0.41,0.51 0.09,-0.1 0.16,-0.05 0.25,0.01 -0.06,-0.2 -0.16,-0.55 -0.16,-0.75l0 0c0.02,-0.16 1.2,-0.55 1.56,-0.46 -0.11,-0.34 -0.06,-0.49 0.29,-0.44 -0.13,-0.23 -0.91,-0.71 -0.24,-0.96 -0.06,-0.06 -0.23,-0.23 -0.13,-0.33l0.14 -0.03c0.39,0.04 1.17,-0.78 1.51,-0.41 -0.11,-1.03 1.86,0.39 2.35,-0.91 0.08,-0.2 0.17,-0.36 0.26,-0.48 -1.52,-2.01 -3.06,-3.79 -4.54,-5.35 -1.58,0.46 -3.06,0.82 -4.49,1.07 0.92,2.6 1.88,5.52 2.79,8.53zm16.69 16.83c-0.31,-0.16 -0.76,-1.07 -1.01,0.43 -0.05,0.31 -0.12,1.03 -0.01,1.42 0.47,-0.12 0.94,-0.24 1.42,-0.36 -0.13,-0.51 -0.26,-1 -0.4,-1.49zm2.53 -1.94c-0.59,0 0.3,-1.23 0.3,-0.29 0,0.19 -0.13,0.29 -0.3,0.29zm0.64 -3.65c0,0 0,0 0,0 0.68,0.26 -0.19,1.68 -0.21,0.57 0,-0.15 -0.11,-0.56 0.11,-0.58 -0.7,-0.21 0.14,-1.22 0.15,-0.46 0,0.12 0.3,0.47 -0.05,0.47zm-0.24 -1.06c-1.14,-0.02 0.2,-2.56 0.19,-0.26 0,0.11 -0.07,0.26 -0.19,0.26zm-0.09 3.71c-0.44,0 -0.18,-0.99 0.02,-1.14 0,-0.03 -0.64,-0.54 0.01,-0.44 0.31,0.04 0.36,0.32 0.1,0.47 0.29,0.18 0.3,1.11 -0.13,1.11zm-57.24 -15.96c-2.54,-0.04 0.31,-4.61 0.14,-1.63 -0.01,0.1 1.6,1.63 -0.14,1.63zm-14.11 25.08l6.42 0c0.28,-2.59 0.75,-5.07 1.4,-7.45 -1.88,-0.81 -3.77,-1.68 -5.67,-2.62 -1.09,3.21 -1.82,6.58 -2.15,10.07zm27.2 -36.79c0.78,0.31 1.53,0.6 2.26,0.87 2.22,-1.37 4.51,-2.55 6.83,-3.53 -3.16,0.56 -6.2,1.46 -9.09,2.66zm24.08 -2.8c2.42,1.01 4.81,2.23 7.13,3.66 0.8,-0.3 1.64,-0.62 2.5,-0.96 -3.05,-1.24 -6.28,-2.16 -9.63,-2.7zm26.27 14.56c-1.57,0.86 -3.16,1.66 -4.75,2.39 3.06,4.23 5.51,9.08 7.07,14.48 2.04,-0.74 4.09,-1.54 6.17,-2.39 -1.9,-5.38 -4.8,-10.28 -8.49,-14.48zm8.99 15.99c-2.1,0.87 -4.19,1.67 -6.25,2.42 0.53,2.12 0.93,4.33 1.18,6.62l6.89 0c-0.29,-3.12 -0.91,-6.14 -1.82,-9.04zm-78.53 9.04l8.41 0c0.1,-0.66 0.21,-1.32 0.33,-1.97 0.13,-0.66 0.26,-1.32 0.41,-1.96 -2.61,-0.84 -5.23,-1.81 -7.87,-2.9 -0.58,2.19 -1.01,4.47 -1.28,6.83zm10.01 0l13.04 0c0,-0.21 0.01,-0.42 0.03,-0.64 -4.14,-0.63 -8.27,-1.57 -12.41,-2.82 -0.13,0.58 -0.25,1.18 -0.37,1.78 -0.11,0.56 -0.2,1.12 -0.29,1.68zm14.62 0l3.74 0c-1.24,-0.11 -2.48,-0.25 -3.72,-0.41 -0.01,0.14 -0.01,0.27 -0.02,0.41zm19.05 0l3.56 0c-0.01,-0.13 -0.01,-0.25 -0.02,-0.38 -1.19,0.15 -2.37,0.28 -3.54,0.38zm19.76 0l8.42 0c-0.23,-2.1 -0.6,-4.13 -1.08,-6.09 -2.7,0.95 -5.35,1.79 -7.98,2.52 0.11,0.5 0.21,1.01 0.3,1.52 0.13,0.68 0.24,1.37 0.34,2.05zm-14.97 -35.23c-2.38,-1.39 -4.83,-2.55 -7.3,-3.48 1.45,1.14 3.08,2.58 4.79,4.31 0.81,-0.25 1.64,-0.53 2.51,-0.83zm-11.74 -3.23l0 5.79c0.73,-0.03 1.47,-0.08 2.21,-0.17 -0.83,-2.33 -1.59,-4.27 -2.21,-5.62zm-1.59 5.79l0 -5.79c-0.62,1.35 -1.38,3.3 -2.22,5.63 0.75,0.08 1.49,0.14 2.22,0.16zm-11.76 -2.55c0.87,0.3 1.71,0.58 2.52,0.83 1.71,-1.73 3.34,-3.17 4.8,-4.32 -2.48,0.93 -4.93,2.1 -7.32,3.49zm4.24 1.33c1.31,0.36 2.56,0.64 3.77,0.84 0.88,-2.4 1.71,-4.47 2.42,-6 -1.66,1.11 -3.82,2.83 -6.19,5.16zm12.86 0.83c1.2,-0.2 2.44,-0.48 3.76,-0.84 -2.37,-2.32 -4.53,-4.04 -6.18,-5.15 0.71,1.53 1.54,3.59 2.42,5.99z"/>
 </g>
</svg>
